<?xml version="1.0" encoding="UTF-8"?>
<svg width="152px" height="31px" viewBox="0 0 152 31" version="1.1" xmlns="http://www.w3.org/2000/svg" xmlns:xlink="http://www.w3.org/1999/xlink">
    <!-- Generator: Sketch 42 (36781) - http://www.bohemiancoding.com/sketch -->
    <title>basic/Logo - Squareboard</title>
    <desc>Created with Sketch.</desc>
    <defs>
        <polygon id="path-1" points="9.77371429 16.0088 9.77371429 0.1288 0.5832 0.1288 0.5832 16.0088 9.77371429 16.0088"></polygon>
        <polygon id="path-3" points="3.09772049e-20 0.385050549 3.09772049e-20 30.8569273 27.7657143 30.8569273 27.7657143 0.385050549 0 0.385050549"></polygon>
    </defs>
    <g id="Symbols" stroke="none" stroke-width="1" fill="none" fill-rule="evenodd">
        <g id="components/side_navigation/theme-dark" transform="translate(-16.000000, -23.000000)">
            <g id="Group-2" transform="translate(-1.000000, 22.000000)">
                <g id="basic/Logo-Squareboard--inverse" transform="translate(17.000000, 0.000000)">
                    <g id="White-Squareboard-Logo">
                        <g id="Logo---Squareboard">
                            <path d="M44.8272,19.5937143 C44.8272,18.9285714 44.5757714,18.3708571 44.0740571,17.9217143 C43.5712,17.4725714 42.6809143,17.0942857 41.4020571,16.788 C39.8546286,16.4188571 38.6477714,15.8748571 37.7814857,15.1571429 C36.9129143,14.4382857 36.4797714,13.5354286 36.4797714,12.4485714 C36.4797714,11.3068571 36.9460571,10.3537143 37.8820571,9.58914286 C38.8146286,8.82342857 40.0260571,8.44057143 41.5129143,8.44057143 C43.1129143,8.44057143 44.3860571,8.87942857 45.3346286,9.75714286 C46.2809143,10.6337143 46.7392,11.652 46.7060571,12.8097143 L46.6854857,12.8702857 L44.7974857,12.8702857 C44.7974857,12.0131429 44.5140571,11.3205714 43.9483429,10.7914286 C43.3814857,10.2622857 42.5700571,9.99828571 41.5129143,9.99828571 C40.5277714,9.99828571 39.7723429,10.22 39.2477714,10.6657143 C38.7209143,11.1114286 38.4592,11.692 38.4592,12.4085714 C38.4592,13.0451429 38.7437714,13.5754286 39.3129143,14.0005714 C39.8820571,14.4257143 40.8054857,14.7994286 42.0854857,15.1205714 C43.6249143,15.5022857 44.7974857,16.0645714 45.6009143,16.8074286 C46.4043429,17.5514286 46.8054857,18.4725714 46.8054857,19.5708571 C46.8054857,20.7491429 46.3243429,21.6965714 45.3597714,22.4131429 C44.3952,23.1297143 43.1369143,23.4874286 41.5826286,23.4874286 C40.1232,23.4874286 38.8317714,23.0908571 37.7094857,22.2977143 C36.5883429,21.5034286 36.0443429,20.444 36.0786286,19.1182857 L36.0980571,19.0577143 L37.9872,19.0577143 C37.9872,19.996 38.3312,20.7091429 39.0214857,21.1971429 C39.7106286,21.6862857 40.5654857,21.9308571 41.5826286,21.9308571 C42.5803429,21.9308571 43.3712,21.7205714 43.9529143,21.3022857 C44.5357714,20.8817143 44.8272,20.3125714 44.8272,19.5937143" id="Fill-1" fill="#FFFFFF"></path>
                            <path d="M50.8027429,18.2488 C50.8027429,19.3459429 51.0290286,20.2339429 51.4804571,20.9128 C51.9330286,21.5916571 52.6278857,21.9310857 53.5650286,21.9310857 C54.1078857,21.9310857 54.5707429,21.8099429 54.9558857,21.5699429 C55.3410286,21.3288 55.6644571,20.9916571 55.9250286,20.5562286 L55.9250286,15.0785143 C55.6644571,14.6705143 55.3410286,14.3493714 54.9558857,14.1150857 C54.5707429,13.8819429 54.1136,13.7642286 53.5844571,13.7642286 C52.6404571,13.7642286 51.9410286,14.1642286 51.4861714,14.9630857 C51.0301714,15.7630857 50.8027429,16.7870857 50.8027429,18.0385143 L50.8027429,18.2488 Z M48.8233143,18.0430857 C48.8233143,16.2956571 49.1970286,14.8865143 49.9444571,13.8145143 C50.6896,12.7436571 51.7364571,12.2076571 53.0827429,12.2076571 C53.7456,12.2076571 54.3284571,12.3333714 54.8301714,12.5848 C55.3330286,12.8350857 55.7581714,13.2019429 56.1067429,13.6842286 L56.3970286,12.4088 L57.9044571,12.4088 L57.9044571,27.4556571 L55.9250286,27.4556571 L55.9250286,22.2522286 C55.5776,22.6602286 55.1650286,22.9688 54.6896,23.1768 C54.2141714,23.3836571 53.6724571,23.4876571 53.0621714,23.4876571 C51.7364571,23.4876571 50.6987429,23.0076571 49.9490286,22.0465143 C49.1993143,21.0853714 48.8233143,19.8213714 48.8233143,18.2545143 L48.8233143,18.0430857 Z" id="Fill-3" fill="#FFFFFF"></path>
                            <path d="M67.3540571,21.6696 C67.0123429,22.2524571 66.5734857,22.7004571 66.0386286,23.0158857 C65.5026286,23.3301714 64.8832,23.4878857 64.1803429,23.4878857 C62.9940571,23.4878857 62.0706286,23.1096 61.4077714,22.3530286 C60.7449143,21.5964571 60.4134857,20.4170286 60.4134857,18.8170286 L60.4134857,12.4078857 L62.3917714,12.4078857 L62.3917714,18.8364571 C62.3917714,19.9953143 62.5632,20.7918857 62.9037714,21.2273143 C63.2454857,21.6627429 63.7780571,21.8810286 64.5014857,21.8810286 C65.2043429,21.8810286 65.7849143,21.7381714 66.2443429,21.4536 C66.7026286,21.1690286 67.0489143,20.7656 67.2832,20.2433143 L67.2832,12.4078857 L69.2626286,12.4078857 L69.2626286,23.2764571 L67.4843429,23.2764571 L67.3540571,21.6696 Z" id="Fill-5" fill="#FFFFFF"></path>
                            <path d="M75.5404571,21.8202286 C76.2570286,21.8202286 76.9027429,21.6362286 77.4787429,21.2693714 C78.0547429,20.9025143 78.4296,20.4819429 78.6044571,20.0076571 L78.6044571,18.2442286 L76.3838857,18.2442286 C75.5873143,18.2442286 74.9484571,18.4442286 74.4696,18.8453714 C73.9918857,19.2465143 73.7530286,19.7173714 73.7530286,20.2579429 C73.7530286,20.7390857 73.9027429,21.1196571 74.2044571,21.3996571 C74.5061714,21.6808 74.9507429,21.8202286 75.5404571,21.8202286 L75.5404571,21.8202286 Z M78.8250286,23.2773714 C78.7576,22.9482286 78.7061714,22.6590857 78.6684571,22.4076571 C78.6318857,22.1573714 78.6113143,21.9036571 78.6044571,21.6499429 C78.2353143,22.1722286 77.7553143,22.6088 77.1621714,22.9608 C76.5701714,23.3116571 75.9324571,23.4876571 75.2490286,23.4876571 C74.1176,23.4876571 73.2558857,23.1985143 72.6616,22.6190857 C72.0707429,22.0396571 71.7736,21.2408 71.7736,20.2236571 C71.7736,19.1848 72.1930286,18.3733714 73.0353143,17.7870857 C73.8741714,17.2019429 75.0147429,16.9082286 76.4547429,16.9082286 L78.6044571,16.9082286 L78.6044571,15.8339429 C78.6044571,15.1973714 78.4101714,14.6933714 78.0216,14.3219429 C77.6330286,13.9505143 77.0844571,13.7642286 76.3747429,13.7642286 C75.7381714,13.7642286 75.2204571,13.9265143 74.8227429,14.2522286 C74.4227429,14.5768 74.2250286,14.9665143 74.2250286,15.4213714 L72.3358857,15.4213714 L72.3164571,15.3619429 C72.2753143,14.5710857 72.6490286,13.8488 73.4364571,13.1916571 C74.2227429,12.5356571 75.2387429,12.2076571 76.4844571,12.2076571 C77.7164571,12.2076571 78.7073143,12.5208 79.4581714,13.1470857 C80.2078857,13.7733714 80.5827429,14.6750857 80.5827429,15.8533714 L80.5827429,21.0865143 C80.5827429,21.4750857 80.6033143,21.8499429 80.6433143,22.2122286 C80.6833143,22.5733714 80.7564571,22.9288 80.8638857,23.2773714 L78.8250286,23.2773714 Z" id="Fill-7" fill="#FFFFFF"></path>
                            <path d="M88.4957714,14.1562286 L87.4809143,14.0956571 C86.9586286,14.0956571 86.5174857,14.2202286 86.1597714,14.4670857 C85.8020571,14.7150857 85.5254857,15.0636571 85.3312,15.5128 L85.3312,23.2762286 L83.3529143,23.2762286 L83.3529143,12.4088 L85.1209143,12.4088 L85.3117714,13.9950857 C85.6192,13.4328 85.9986286,12.9939429 86.4523429,12.6796571 C86.9026286,12.3653714 87.4237714,12.2076571 88.0134857,12.2076571 C88.1609143,12.2076571 88.3014857,12.2190857 88.4352,12.2430857 C88.5689143,12.2659429 88.6797714,12.2910857 88.7666286,12.3185143 L88.4957714,14.1562286 Z" id="Fill-9" fill="#FFFFFF"></path>
                            <path d="M94.4221714,13.7644571 C93.7593143,13.7644571 93.1936,14.0433143 92.7250286,14.6010286 C92.2553143,15.1576 91.9684571,15.8570286 91.8610286,16.6970286 L91.8804571,16.7473143 L96.8930286,16.7473143 L96.8930286,16.4878857 C96.8930286,15.7130286 96.6850286,15.0661714 96.2701714,14.5450286 C95.8553143,14.0250286 95.2393143,13.7644571 94.4221714,13.7644571 M94.7238857,23.4878857 C93.2096,23.4878857 92.0073143,22.9838857 91.1124571,21.9758857 C90.2187429,20.9678857 89.7718857,19.6604571 89.7718857,18.0536 L89.7718857,17.6113143 C89.7718857,16.0650286 90.2313143,14.7770286 91.1524571,13.7496 C92.0724571,12.7210286 93.1627429,12.2078857 94.4221714,12.2078857 C95.8884571,12.2078857 96.9970286,12.6490286 97.7467429,13.5336 C98.4964571,14.4170286 98.8724571,15.5964571 98.8724571,17.0696 L98.8724571,18.3050286 L91.8210286,18.3050286 L91.7901714,18.3553143 C91.8107429,19.3964571 92.0747429,20.2524571 92.5844571,20.9244571 C93.0930286,21.5953143 93.8061714,21.9313143 94.7238857,21.9313143 C95.3936,21.9313143 95.9798857,21.8353143 96.4873143,21.6444571 C96.9913143,21.4536 97.4290286,21.1907429 97.7970286,20.8558857 L98.5707429,22.1438857 C98.1821714,22.5278857 97.6701714,22.8467429 97.0336,23.1038857 C96.3981714,23.3598857 95.6278857,23.4878857 94.7238857,23.4878857" id="Fill-11" fill="#FFFFFF"></path>
                            <path d="M108.394057,18.0435429 C108.394057,16.7978286 108.164343,15.7818286 107.7072,14.9955429 C107.246629,14.2081143 106.549486,13.8149714 105.612343,13.8149714 C105.002057,13.8149714 104.487771,13.9635429 104.070629,14.2618286 C103.6512,14.5601143 103.318629,14.9601143 103.070629,15.4618286 L103.070629,20.1726857 C103.325486,20.7086857 103.658057,21.1269714 104.070629,21.4286857 C104.480914,21.7304 105.002057,21.8801143 105.631771,21.8801143 C106.5632,21.8801143 107.255771,21.5486857 107.710629,20.8858286 C108.166629,20.2229714 108.394057,19.3464 108.394057,18.2549714 L108.394057,18.0435429 Z M110.373486,18.2549714 C110.373486,19.8218286 109.996343,21.0858286 109.242057,22.0458286 C108.490057,23.0069714 107.453486,23.4881143 106.134629,23.4881143 C105.418057,23.4881143 104.7952,23.3486857 104.266057,23.0709714 C103.736914,22.7932571 103.298057,22.3829714 102.949486,21.8401143 L102.708343,23.2766857 L101.0912,23.2766857 L101.0912,7.60697143 L103.070629,7.60697143 L103.070629,13.6938286 C103.412343,13.2115429 103.8352,12.8435429 104.340343,12.5898286 C104.846629,12.3349714 105.437486,12.2081143 106.114057,12.2081143 C107.453486,12.2081143 108.498057,12.7429714 109.247771,13.8149714 C109.997486,14.8858286 110.373486,16.2961143 110.373486,18.0435429 L110.373486,18.2549714 Z" id="Fill-13" fill="#FFFFFF"></path>
                            <path d="M114.506971,17.9580571 C114.506971,19.1077714 114.749257,20.0574857 115.234971,20.8072 C115.719543,21.5557714 116.441829,21.9306286 117.399543,21.9306286 C118.343543,21.9306286 119.060114,21.5557714 119.549257,20.8072 C120.0384,20.0574857 120.282971,19.1077714 120.282971,17.9580571 L120.282971,17.7374857 C120.282971,16.6003429 120.036114,15.6540571 119.544686,14.8974857 C119.052114,14.1420571 118.330971,13.7649143 117.380114,13.7649143 C116.434971,13.7649143 115.719543,14.1420571 115.234971,14.8974857 C114.749257,15.6540571 114.506971,16.6003429 114.506971,17.7374857 L114.506971,17.9580571 Z M112.527543,17.7420571 C112.527543,16.1352 112.962971,14.8106286 113.833829,13.7694857 C114.704686,12.7283429 115.8864,12.2072 117.380114,12.2072 C118.8864,12.2072 120.076114,12.7260571 120.951543,13.7649143 C121.823543,14.8026286 122.261257,16.1283429 122.261257,17.7420571 L122.261257,17.9626286 C122.261257,19.5832 121.825829,20.9100571 120.956114,21.9409143 C120.085257,22.9717714 118.900114,23.4872 117.399543,23.4872 C115.900114,23.4872 114.712686,22.9706286 113.839543,21.9352 C112.964114,20.9009143 112.527543,19.5774857 112.527543,17.9626286 L112.527543,17.7420571 Z" id="Fill-15" fill="#FFFFFF"></path>
                            <path d="M128.077257,21.8202286 C128.793829,21.8202286 129.439543,21.6362286 130.015543,21.2693714 C130.591543,20.9025143 130.9664,20.4819429 131.141257,20.0076571 L131.141257,18.2442286 L128.920686,18.2442286 C128.124114,18.2442286 127.485257,18.4442286 127.007543,18.8453714 C126.528686,19.2465143 126.289829,19.7173714 126.289829,20.2579429 C126.289829,20.7390857 126.439543,21.1196571 126.741257,21.3996571 C127.042971,21.6808 127.487543,21.8202286 128.077257,21.8202286 L128.077257,21.8202286 Z M131.361829,23.2773714 C131.2944,22.9482286 131.242971,22.6590857 131.205257,22.4076571 C131.168686,22.1573714 131.148114,21.9036571 131.141257,21.6499429 C130.772114,22.1722286 130.293257,22.6088 129.698971,22.9608 C129.106971,23.3116571 128.469257,23.4876571 127.785829,23.4876571 C126.6544,23.4876571 125.792686,23.1985143 125.1984,22.6190857 C124.607543,22.0396571 124.3104,21.2408 124.3104,20.2236571 C124.3104,19.1848 124.729829,18.3733714 125.572114,17.7870857 C126.410971,17.2019429 127.551543,16.9082286 128.991543,16.9082286 L131.141257,16.9082286 L131.141257,15.8339429 C131.141257,15.1973714 130.946971,14.6933714 130.5584,14.3219429 C130.169829,13.9505143 129.621257,13.7642286 128.911543,13.7642286 C128.274971,13.7642286 127.757257,13.9265143 127.359543,14.2522286 C126.960686,14.5768 126.761829,14.9665143 126.761829,15.4213714 L124.872686,15.4213714 L124.853257,15.3619429 C124.813257,14.5710857 125.185829,13.8488 125.973257,13.1916571 C126.759543,12.5356571 127.775543,12.2076571 129.021257,12.2076571 C130.253257,12.2076571 131.244114,12.5208 131.994971,13.1470857 C132.744686,13.7733714 133.119543,14.6750857 133.119543,15.8533714 L133.119543,21.0865143 C133.119543,21.4750857 133.140114,21.8499429 133.180114,22.2122286 C133.220114,22.5733714 133.293257,22.9288 133.400686,23.2773714 L131.361829,23.2773714 Z" id="Fill-17" fill="#FFFFFF"></path>
                            <path d="M141.031543,14.1562286 L140.016686,14.0956571 C139.4944,14.0956571 139.0544,14.2202286 138.695543,14.4670857 C138.337829,14.7150857 138.061257,15.0636571 137.866971,15.5128 L137.866971,23.2762286 L135.888686,23.2762286 L135.888686,12.4088 L137.656686,12.4088 L137.847543,13.9950857 C138.154971,13.4328 138.5344,12.9939429 138.988114,12.6796571 C139.4384,12.3653714 139.960686,12.2076571 140.549257,12.2076571 C140.696686,12.2076571 140.837257,12.2190857 140.970971,12.2430857 C141.104686,12.2659429 141.215543,12.2910857 141.3024,12.3185143 L141.031543,14.1562286 Z" id="Fill-19" fill="#FFFFFF"></path>
                            <g id="Group-23" transform="translate(141.714286, 7.478743)">
                                <mask id="mask-2" fill="white">
                                    <use xlink:href="#path-1"></use>
                                </mask>
                                <g id="Clip-22"></g>
                                <path d="M2.56148571,10.7756571 C2.56148571,11.8739429 2.78548571,12.7528 3.23462857,13.4122286 C3.68377143,14.0716571 4.37977143,14.4019429 5.32377143,14.4019429 C5.91348571,14.4019429 6.40834286,14.2682286 6.81062857,13.9996571 C7.21177143,13.7322286 7.54091429,13.3573714 7.79462857,12.8750857 L7.79462857,7.80194286 C7.54091429,7.35394286 7.20948571,6.99737143 6.80605714,6.73222857 C6.3992,6.46822857 5.91348571,6.33565714 5.34434286,6.33565714 C4.39348571,6.33565714 3.69177143,6.72765714 3.2392,7.51165714 C2.78777143,8.29451429 2.56148571,9.3128 2.56148571,10.5642286 L2.56148571,10.7756571 Z M0.5832,10.5642286 C0.5832,8.8168 0.955771429,7.40765714 1.7032,6.33565714 C2.44834286,5.2648 3.4952,4.7288 4.84148571,4.7288 C5.47805714,4.7288 6.04262857,4.84537143 6.53405714,5.0808 C7.02662857,5.31508571 7.44605714,5.65565714 7.79462857,6.1048 L7.79462857,0.1288 L9.77405714,0.1288 L9.77405714,15.7985143 L8.15691429,15.7985143 L7.92491429,14.4625143 C7.57062857,14.9710857 7.1352,15.3562286 6.61977143,15.6168 C6.10434286,15.8785143 5.50434286,16.0088 4.82205714,16.0088 C3.4952,16.0088 2.45748571,15.5288 1.70777143,14.5676571 C0.958057143,13.6065143 0.5832,12.3425143 0.5832,10.7756571 L0.5832,10.5642286 Z" id="Fill-21" fill="#FFFFFF" mask="url(#mask-2)"></path>
                            </g>
                            <g id="Group-26" transform="translate(0.000000, 0.621600)">
                                <mask id="mask-4" fill="white">
                                    <use xlink:href="#path-3"></use>
                                </mask>
                                <g id="Clip-25"></g>
                                <path d="M20.2468571,16.1004571 C19.3634286,15.2170286 19.3634286,13.7850286 20.2468571,12.9016 C21.1291429,12.0181714 22.5622857,12.0181714 23.4457143,12.9016 C24.3291429,13.7850286 24.3291429,15.2170286 23.4457143,16.1004571 C22.5622857,16.9838857 21.1291429,16.9838857 20.2468571,16.1004571 L20.2468571,16.1004571 Z M17.12,8.5816 L17.1074286,8.5816 L17.1074286,8.5816 L17.1028571,8.5816 C16.824,8.5816 16.5554286,8.63302857 16.3097143,8.72445714 C16.2605714,8.74388571 16.2125714,8.76331429 16.1657143,8.78502857 C15.9405714,8.88788571 15.7348571,9.02617143 15.5577143,9.19302857 C15.5428571,9.20788571 15.5268571,9.22274286 15.5108571,9.23874286 L7.21942857,17.5267429 C7.21714286,17.5301714 7.21257143,17.5347429 7.20914286,17.5381714 C5.89714286,18.8364571 3.784,18.8330286 2.47771429,17.5267429 C2.296,17.3450286 2.13942857,17.1484571 2.00914286,16.9381714 C1.19428571,15.6456 1.34971429,13.9187429 2.47085714,12.7907429 C2.47314286,12.7884571 2.47542857,12.7873143 2.47771429,12.7850286 C2.48914286,12.7724571 2.50171429,12.7621714 2.51314286,12.7496 L2.51314286,12.7484571 L12.7257143,2.53588571 C13.6034286,1.65817143 15.0251429,1.65817143 15.9028571,2.53588571 L21.9485714,8.5816 L17.12,8.5816 Z M27.1062857,20.8387429 L27.1062857,20.8376 C27.2948571,20.6490286 27.4514286,20.4273143 27.5622857,20.1816 C27.584,20.1347429 27.6034286,20.0867429 27.6217143,20.0387429 C27.7142857,19.7918857 27.7657143,19.5256 27.7657143,19.2467429 L27.7657143,19.2456 L27.7657143,19.2444571 L27.7657143,11.2284571 L27.7657143,11.2227429 C27.7657143,9.76445714 26.5828571,8.5816 25.1245714,8.5816 L25.1154286,8.5816 L24.0628571,8.5816 L16.9634286,1.48217143 C16.296,0.8136 15.4377143,0.451314286 14.5622857,0.393028571 C14.368,0.380457143 14.1737143,0.382742857 13.9782857,0.399885714 C13.9154286,0.4056 13.8514286,0.412457143 13.7885714,0.4216 C13.0114286,0.531314286 12.2628571,0.884457143 11.6651429,1.48102857 L11.664,1.48217143 L11.664,1.48331429 L1.41942857,11.7267429 C0.500571429,12.6467429 0.0274285714,13.8444571 0.00114285714,15.0501714 C-0.00114285714,15.1210286 2.80385551e-13,15.1907429 0.00114285714,15.2604571 C0.0228571429,16.2307429 0.332571429,17.1953143 0.932571429,18.0147429 C1.07771429,18.2147429 1.24114286,18.4044571 1.41942857,18.5850286 L12.4914286,29.6558857 L12.5702857,29.7347429 L12.5714286,29.7336 C14.1782857,31.2570286 16.7165714,31.2307429 18.2914286,29.6558857 L27.1074286,20.8398857 L27.1062857,20.8387429 Z" id="Fill-24" fill="#FFFFFF" mask="url(#mask-4)"></path>
                            </g>
                        </g>
                    </g>
                </g>
            </g>
        </g>
    </g>
</svg>